<svg xmlns="http://www.w3.org/2000/svg" version="1.1" xmlns:xlink="http://www.w3.org/1999/xlink" xmlns:svgjs="http://svgjs.dev/svgjs" width="1440" height="560" preserveAspectRatio="none" viewBox="0 0 1440 560"><g mask="url(&quot;#SvgjsMask1009&quot;)" fill="none"><path d="M1536 560L0 560 L0 334.49Q44.09 306.58, 72 350.67Q100.36 259.03, 192 287.39Q258.63 234.02, 312 300.65Q379.95 296.6, 384 364.55Q403.5 312.05, 456 331.55Q523.28 278.83, 576 346.1Q599.01 297.12, 648 320.13Q733.26 285.39, 768 370.65Q821.87 304.51, 888 358.38Q915.66 266.04, 1008 293.7Q1057.84 271.54, 1080 321.38Q1124.88 294.25, 1152 339.13Q1206.4 321.53, 1224 375.94Q1232.82 312.75, 1296 321.57Q1361.73 267.3, 1416 333.03Q1498.45 295.49, 1536 377.94z" fill="rgba(98, 99, 103, 1)"></path><path d="M1488 560L0 560 L0 351.78Q96.88 328.66, 120 425.54Q131.06 364.6, 192 375.65Q236.85 348.5, 264 393.34Q349.94 359.28, 384 445.23Q396.83 338.06, 504 350.89Q579.76 354.65, 576 430.42Q620.29 402.71, 648 447Q682.57 361.57, 768 396.14Q796.35 352.49, 840 380.84Q920.81 341.65, 960 422.47Q1001.27 391.75, 1032 433.02Q1045.67 374.69, 1104 388.36Q1144.93 309.3, 1224 350.23Q1270.03 324.26, 1296 370.29Q1386.56 340.85, 1416 431.41Q1426.61 370.02, 1488 380.63z" fill="rgba(78, 80, 83, 1)"></path><path d="M1560 560L0 560 L0 438.21Q89.15 407.36, 120 496.5Q156.28 412.78, 240 449.07Q307.58 396.65, 360 464.24Q380.01 412.25, 432 432.26Q517.38 397.63, 552 483.01Q628.97 439.98, 672 516.94Q674.42 447.36, 744 449.78Q767.33 401.11, 816 424.43Q858.14 394.58, 888 436.72Q973.34 402.06, 1008 487.39Q1074.89 434.28, 1128 501.17Q1170.37 423.53, 1248 465.9Q1296.82 394.71, 1368 443.53Q1427.05 430.57, 1440 489.62Q1471.32 400.94, 1560 432.25z" fill="rgba(60, 62, 63, 1)"></path><path d="M1512 560L0 560 L0 514.87Q69.2 464.07, 120 533.27Q198.38 491.64, 240 570.02Q307.37 517.38, 360 584.75Q383.9 488.65, 480 512.56Q557.88 470.44, 600 548.33Q646.25 522.59, 672 568.84Q705.31 482.15, 792 515.47Q843.95 447.42, 912 499.37Q977.56 492.93, 984 558.5Q1004.69 507.19, 1056 527.88Q1081.4 481.28, 1128 506.69Q1156.15 462.84, 1200 490.99Q1300.8 471.79, 1320 572.58Q1372.3 504.88, 1440 557.18Q1490.67 535.85, 1512 586.52z" fill="rgba(37, 37, 37, 1)"></path></g><defs><mask id="SvgjsMask1009"><rect width="1440" height="560" fill="#ffffff"></rect></mask></defs></svg>