<svg xmlns="http://www.w3.org/2000/svg" version="1.1" xmlns:xlink="http://www.w3.org/1999/xlink" xmlns:svgjs="http://svgjs.dev/svgjs" width="1440" height="560" preserveAspectRatio="none" viewBox="0 0 1440 560"><g mask="url(&quot;#SvgjsMask1028&quot;)" fill="none"><path d="M1488 560L0 560 L0 355.28Q68.65 303.93, 120 372.58Q164.72 297.3, 240 342.03Q263.15 293.18, 312 316.34Q331.31 263.65, 384 282.96Q438.18 265.13, 456 319.31Q485.13 276.44, 528 305.58Q553.22 258.8, 600 284.02Q658.22 270.24, 672 328.45Q721.08 257.52, 792 306.6Q815.38 257.98, 864 281.35Q942.26 239.61, 984 317.87Q1036.73 298.61, 1056 351.34Q1089.34 264.68, 1176 298.02Q1225.45 275.48, 1248 324.93Q1330.19 287.13, 1368 369.32Q1391.02 272.34, 1488 295.35z" fill="rgba(128, 187, 223, 1)"></path><path d="M1464 560L0 560 L0 399.14Q17.55 344.69, 72 362.23Q145.11 315.34, 192 388.44Q235.94 360.38, 264 404.32Q297.2 317.52, 384 350.72Q449.16 295.88, 504 361.05Q556.06 341.11, 576 393.17Q657.11 354.28, 696 435.39Q718.6 385.99, 768 408.58Q820.74 341.31, 888 394.05Q932.77 318.82, 1008 363.59Q1091.32 326.91, 1128 410.23Q1182.44 392.67, 1200 447.11Q1254.14 381.25, 1320 435.4Q1322.63 366.03, 1392 368.66Q1439.43 344.1, 1464 391.53z" fill="rgba(87, 178, 235, 1)"></path><path d="M1536 560L0 560 L0 516.99Q41.1 438.09, 120 479.19Q155.72 394.91, 240 430.64Q290.36 409, 312 459.36Q370.44 445.8, 384 504.23Q408.66 456.89, 456 481.56Q475 428.56, 528 447.55Q574.69 374.24, 648 420.93Q732.69 385.63, 768 470.32Q846.45 428.77, 888 507.22Q891.44 438.66, 960 442.1Q987.29 397.39, 1032 424.69Q1082.95 403.64, 1104 454.59Q1174.98 405.57, 1224 476.55Q1238.05 418.6, 1296 432.64Q1366.78 383.41, 1416 454.19Q1499.37 417.56, 1536 500.93z" fill="rgba(51, 152, 213, 1)"></path><path d="M1464 560L0 560 L0 517.03Q82.79 479.82, 120 562.61Q125.67 496.28, 192 501.95Q262.06 452.01, 312 522.07Q363.13 501.21, 384 552.34Q419.2 467.54, 504 502.73Q575.92 454.65, 624 526.58Q677.68 460.26, 744 513.94Q772.26 470.21, 816 498.47Q897.9 460.38, 936 542.28Q991.85 526.13, 1008 581.97Q1012.35 514.32, 1080 518.67Q1104.33 471, 1152 495.32Q1228.85 452.17, 1272 529.02Q1327.54 512.56, 1344 568.1Q1396.22 500.32, 1464 552.54z" fill="rgba(0, 139, 224, 1)"></path></g><defs><mask id="SvgjsMask1028"><rect width="1440" height="560" fill="#ffffff"></rect></mask></defs></svg>